<svg xmlns="http://www.w3.org/2000/svg" width="18" height="18" viewBox="0 0 18 18">
    <defs>
        <clipPath id="n4nqkt0dxa">
            <path fill="none" d="M0 0H15V13.66H0z" transform="translate(1 2)"/>
        </clipPath>
    </defs>
    <g>
        <g>
            <path fill="rgba(34,34,34,0)" d="M0 0H18V18H0z"/>
            <g>
                <g clip-path="url(#n4nqkt0dxa)">
                    <g>
                        <path fill="#fff" d="M8.5 2C4.36 2 1 4.69 1 8a5.64 5.64 0 0 0 3.31 4.87 6.71 6.71 0 0 1-1.42 2.52c-.05 0-.31.27 0 .31a13.47 13.47 0 0 0 4.26-1.94 10.7 10.7 0 0 0 1.39.09c4.14 0 7.5-2.69 7.5-5.95S12.64 2 8.5 2"/>
                    </g>
                </g>
            </g>
        </g>
    </g>
</svg>
